<svg xmlns="http://www.w3.org/2000/svg" viewBox="0 0 695.7 415.75"><defs><style>.cls-1{fill:#1a1a1a;stroke:#fff;stroke-miterlimit:10;stroke-width:6px;}.cls-2{fill:#e6e6e6;}.cls-3{fill:#4d4d4d;}</style></defs><g id="Layer_2" data-name="Layer 2"><g id="Layer_1-2" data-name="Layer 1"><path class="cls-1" d="M132,26c2.24,0,3.2.64,2.88,2.88l-26.2,145.3c-2.56,15.68-6.72,29.76-10.88,39.36C84.68,243,60.68,252.91,30.92,252.91c-9.6,0-18.88-1-25.92-3.52q-2.4-1-1.92-3.84l7.68-38.09c.32-1.28,1.28-2.24,2.24-1.92a55.34,55.34,0,0,0,13.44,1.6c17.92,0,24.32-9.28,28.16-30.4L81.8,28.58c0-1.92.64-2.56,2.24-2.56Z"/><path class="cls-1" d="M281.49,195c-1.92,10.88-2.56,29.76-2.56,36.16,0,1.61-.32,2.57-2.24,2.57H233.48c-2.56,0-3.52-1-3.84-2.57-.64-2.24-1-5.43-1.6-8.32-15.36,11.84-31.68,14.09-42.88,14.09-29.12,0-49.92-17.29-42.56-59.53L160.84,75.62c0-1.92,1.28-2.56,3.2-2.56h48c1.92,0,2.56,1.28,2.56,3.2L197,175.46c-2.24,11.2.64,17.6,10.56,17.6,6.72,0,13.44-2.88,20.16-9.92a16.7,16.7,0,0,0,3.84-8.32L249.8,75.3c0-1.28.64-2.24,2.88-2.24h47.69c1.92,0,2.56.64,2.56,2.24Z"/><path class="cls-1" d="M383.56,111.46c-10.24,0-15.68,3.2-15.68,7,0,3.52,1.92,5.44,17.6,13.12,27.84,14.08,42.88,26.56,42.56,51.52-.32,34.24-28.16,53.77-68.48,53.77-20.16,0-39.68-4.48-51.52-12.49-1.92-1.28-1.92-2.88-1.6-4.8l7.68-36.8c0-1.6,1.28-2.24,2.24-1.28,12.8,9,32.32,14.4,46.08,14.4,9.92,0,14.4-3.2,14.4-7,0-4.16-1.6-7.36-18.24-15-19.52-9.92-38.4-23.68-38.08-48.32,0-30.72,21.76-55.36,67.52-55.36,16.32,0,33.28,2.88,42.88,8,1.6.64,1.92,1.6,1.6,3.84l-6.72,36.16c-.32,2.24-1.92,2.56-3.52,1.6C411.72,114.34,396.68,111.46,383.56,111.46Z"/><path class="cls-1" d="M532.68,227.94a6.14,6.14,0,0,1-3.84,4.49c-9,3.19-20.16,4.48-33.28,4.48-32,0-46.08-17.29-39.05-53.77L469,117.22H448.84c-1.92,0-2.25-1-2.25-3.2L454,75.94c.63-2.24,1-2.88,3.2-2.88h19.52c2.24-11.2,5.44-23.68,7-34.88.32-1.6,1-2.24,2.88-2.56,19.2-.32,34.56-2.88,51.2-9,1.6-.64,2.56,1,2.24,2.56-3.2,15-6.72,28.48-9.92,43.84h26.56c2.88,0,3.52.64,3.2,3.2l-5.76,38.4c0,1.92-1.28,2.56-3.2,2.56H522.44L510.92,177c-1.92,11.2.32,16.32,11.52,16.32,5.44,0,10.24-1,14.08-1.28,1-.32,2.24,0,1.92,2.56Z"/><rect class="cls-2" x="674.7" y="18.87" width="21" height="374.5"/><rect class="cls-3" x="674.7" y="70.07" width="21" height="136.05"/><polygon class="cls-3" points="685.2 0 674.8 13.17 695.6 13.17 685.2 0"/><polygon class="cls-3" points="685.2 412.75 695.6 399.57 674.8 399.57 685.2 412.75"/><path class="cls-1" d="M77.22,373.5c.25-1,1-1.5,2-.75A73.4,73.4,0,0,0,122,386.25c19.25,0,26.75-9,26.75-19.75,0-11.25-8.5-18-23.25-27-23.75-14-36.25-25.5-36.25-48.75s18-47.25,56.75-47.25c18,0,31.5,4,39,8.75,1.25.75,1,1.5.75,2.5l-5,23.75c0,1-.5,1.25-1.75.75-11-7-22.5-9.5-35.75-9.5-19.5,0-26,10-26,19.25,0,10.5,11.25,17,25.5,25.75,25.25,15,36,27.25,36,48.75-.25,26-20.5,49.25-59.5,49.25-19.25,0-35-5.25-46-12a2.87,2.87,0,0,1-1-3Z"/><path class="cls-1" d="M275,406.75a2.67,2.67,0,0,1-1.75,2.25c-6.75,2.75-13,3.75-22.5,3.75-30,0-53.25-18.5-53.25-54.5,0-41.5,31.5-73.75,72-73.75,10.75,0,17,1,21.5,3,1.25.5,1.25,1,1,2l-4.5,21.5c-.25,1-.75,1-1.75.75-5-1.75-9-2.25-16-2.25-26,0-42.75,21-42.75,46.5,0,18.25,9.75,31.5,31.5,31.5a54.59,54.59,0,0,0,19.75-3.25c1.25-.5,1.5.25,1.25,1.25Z"/><path class="cls-1" d="M337.46,287c1.5,0,2,.25,2.25,1.25.5,3.25-.5,16.75-1.5,21.5C349,295,366.46,284.5,382,284.5c1.25,0,1.75.5,1.5,2.25L378,314q-.37,1.5-1.5,1.5c-15.5.75-31.5,9.25-39,21A9.3,9.3,0,0,0,335,342l-12,67c-.25.75-.5,1.25-1.75,1.25h-25a1.41,1.41,0,0,1-1.5-1.75l16-90.5a229.34,229.34,0,0,0,4-29.75c0-1.25,1-1.25,2-1.25Z"/><path class="cls-1" d="M498,337c0,36.25-23,75.75-65.25,75.75-28.75,0-48.5-18-48.5-51.25,0-38.5,25-77,66.25-77C478,284.5,498,302,498,337Zm-85,24.5c0,14.25,6,27,22,27,19,0,33.75-24.25,33.75-53.5.25-12.75-5-26.5-21-26.5C427.71,308.5,413,334,413,361.5Z"/><path class="cls-1" d="M556,407.5a2.69,2.69,0,0,1-2,2.5c-4,1.75-9.75,2.75-16.25,2.75-16.25,0-26.25-7.25-22-31.75l25.75-146.5c.25-1,.5-1.5,1.75-1.75,7.5-.5,23.5-1.5,25.5-1.75,1.25,0,1.5.5,1.5,1.75l-25.75,146.5c-1.5,8.25,1.75,9.75,6.25,9.75a31.1,31.1,0,0,0,7.75-1.25c1-.25,1.25.5,1.25,1.25Z"/><path class="cls-1" d="M620,407.5a2.69,2.69,0,0,1-2,2.5c-4,1.75-9.75,2.75-16.25,2.75-16.25,0-26.25-7.25-22-31.75l25.75-146.5c.25-1,.5-1.5,1.75-1.75,7.5-.5,23.5-1.5,25.5-1.75,1.25,0,1.5.5,1.5,1.75l-25.75,146.5c-1.5,8.25,1.75,9.75,6.25,9.75a31.1,31.1,0,0,0,7.75-1.25c1-.25,1.25.5,1.25,1.25Z"/></g></g></svg>