<svg xmlns="http://www.w3.org/2000/svg" viewBox="0 0 914 914"><defs><style>.cls-1{fill:#5a8a96;}.cls-2{fill:#50727d;}.cls-3{fill:#fbb03b;}.cls-4{fill:#fcee21;}.cls-5{fill:#e0d631;}.cls-6{fill:#e6ac9c;stroke:#8f4b33;stroke-miterlimit:10;stroke-width:14px;}.cls-7{fill:#39b54a;}.cls-8{fill:#1b9c2c;}.cls-9{fill:#159e28;}.cls-10{fill:#1e942f;}.cls-11{fill:#2e913b;}.cls-12{fill:#009245;}.cls-13{fill:#5e2d1b;opacity:0.71;}.cls-14{fill:#006837;}</style></defs><g id="Layer_2" data-name="Layer 2"><g id="Layer_1-2" data-name="Layer 1"><circle class="cls-1" cx="457" cy="457" r="457"/><circle class="cls-2" cx="465" cy="458" r="353"/><polygon class="cls-3" points="339.05 181.47 355.34 467.3 341.81 475.8 325.51 189.97 339.05 181.47"/><rect class="cls-4" x="306.68" y="190.51" width="27" height="286.29" transform="translate(-18.47 18.77) rotate(-3.26)"/><polygon class="cls-5" points="339.05 181.47 325.51 189.97 298.55 191.51 312.09 183.01 339.05 181.47"/><path class="cls-3" d="M459.61,142.08a1935.1,1935.1,0,0,1,33.56,292.78q-6.84,4.33-13.7,8.6a1922.66,1922.66,0,0,0-32.13-291Q453.49,147.32,459.61,142.08Z"/><path class="cls-4" d="M447.34,152.48a1922.66,1922.66,0,0,1,32.13,291q-13.5.56-27,1.07a1894.47,1894.47,0,0,0-31.67-287Q434.09,155,447.34,152.48Z"/><path class="cls-5" d="M459.61,142.08q-6.12,5.23-12.27,10.4-13.26,2.55-26.53,5.06,6.17-5.1,12.3-10.25Q446.37,144.7,459.61,142.08Z"/><path class="cls-3" d="M404.47,145.61a786,786,0,0,1,47.72,306.3q-7.21,4.29-14.46,8.41a772.88,772.88,0,0,0-43.57-302Q399.37,152,404.47,145.61Z"/><path class="cls-4" d="M394.16,158.27a772.88,772.88,0,0,1,43.57,302q-13.53-.29-27.05-.73a746,746,0,0,0-41.88-292Q381.51,163,394.16,158.27Z"/><path class="cls-5" d="M404.47,145.61q-5.1,6.4-10.31,12.66Q381.5,163,368.8,167.59q5.26-6,10.45-12.24Q391.88,150.55,404.47,145.61Z"/><path class="cls-3" d="M383.55,140.12a1103.18,1103.18,0,0,1,34.17,299.46q-7.11,4.08-14.24,8.06A1089.58,1089.58,0,0,0,372,151.41Q377.78,145.82,383.55,140.12Z"/><path class="cls-4" d="M372,151.41a1089.58,1089.58,0,0,1,31.52,296.23q-13.5-.22-27-.54A1062.91,1062.91,0,0,0,345.78,158Q358.88,154.76,372,151.41Z"/><path class="cls-5" d="M383.55,140.12q-5.76,5.7-11.59,11.29-13.08,3.34-26.18,6.62,5.85-5.46,11.66-11Q370.51,143.61,383.55,140.12Z"/><path class="cls-3" d="M378,154.71a1352.68,1352.68,0,0,0,12.46,287.48q-6.34,4.88-12.65,9.83a1366,1366,0,0,1-14.26-290.29Q370.76,158.18,378,154.71Z"/><path class="cls-4" d="M363.54,161.73A1366,1366,0,0,0,377.8,452q-13.33,2.1-26.67,4.24a1393.28,1393.28,0,0,1-14.55-296Q350.07,161,363.54,161.73Z"/><path class="cls-5" d="M378,154.71q-7.23,3.47-14.45,7-13.47-.75-27-1.47,7.23-3.64,14.46-7.2Q364.53,153.87,378,154.71Z"/><path class="cls-3" d="M310.68,175.82a647.92,647.92,0,0,0,29,292.2q-5.35,6-10.6,12.13a661.25,661.25,0,0,1-33.34-297.57Q303.2,179.1,310.68,175.82Z"/><path class="cls-4" d="M295.73,182.58a661.25,661.25,0,0,0,33.34,297.57q-12.69,4.62-25.35,9.37A688.42,688.42,0,0,1,268.81,180.1Q282.28,181.28,295.73,182.58Z"/><path class="cls-5" d="M310.68,175.82q-7.49,3.28-14.95,6.76-13.44-1.31-26.92-2.48,7.49-3.71,15-7.21Q297.25,174.29,310.68,175.82Z"/><polygon class="cls-3" points="479.06 138.59 497.59 424.27 484.12 432.88 465.59 147.19 479.06 138.59"/><rect class="cls-4" x="447.88" y="147.76" width="27" height="286.29" transform="translate(-17.86 30.46) rotate(-3.71)"/><polygon class="cls-5" points="479.06 138.59 465.59 147.19 438.65 148.94 452.12 140.33 479.06 138.59"/><path class="cls-3" d="M603,143.45a1933.47,1933.47,0,0,1,19.51,293.17q-7,3.94-14.09,7.83a1919.3,1919.3,0,0,0-18.18-291.22Q596.64,148.37,603,143.45Z"/><path class="cls-4" d="M590.25,153.23a1919.3,1919.3,0,0,1,18.18,291.22q-13.5-.13-27-.3A1891.66,1891.66,0,0,0,563.51,157Z"/><path class="cls-5" d="M603,143.45q-6.37,4.92-12.76,9.78L563.51,157q6.4-4.8,12.78-9.65Q589.64,145.41,603,143.45Z"/><path class="cls-3" d="M520,140.93a1099.69,1099.69,0,0,1,23.74,299.31q-7.23,3.76-14.48,7.41A1086.39,1086.39,0,0,0,508,151.77Q514,146.4,520,140.93Z"/><path class="cls-4" d="M508,151.77a1086.39,1086.39,0,0,1,21.24,295.88q-13.49-.76-27-1.59A1059.44,1059.44,0,0,0,481.6,157.45Q494.8,154.63,508,151.77Z"/><path class="cls-5" d="M520,140.93q-6,5.48-12,10.84-13.2,2.86-26.4,5.68,6-5.25,12-10.6Q506.81,143.91,520,140.93Z"/><path class="cls-3" d="M559.81,144.1A778.92,778.92,0,0,1,581.4,449.32q-7.5,3.38-15,6.6a765.17,765.17,0,0,0-17.95-300.21Q554.17,150,559.81,144.1Z"/><path class="cls-4" d="M548.44,155.71a765.17,765.17,0,0,1,17.95,300.21q-13.39-1.73-26.78-3.5a738.2,738.2,0,0,0-17.25-289.71Q535.41,159.25,548.44,155.71Z"/><path class="cls-5" d="M559.81,144.1q-5.64,5.88-11.37,11.61-13,3.54-26.08,7,5.77-5.57,11.46-11.27Q546.83,147.79,559.81,144.1Z"/><path class="cls-3" d="M497.94,158.86a1360.17,1360.17,0,0,0,31.2,288q-6,5.27-12,10.64A1373.73,1373.73,0,0,1,484,167Q490.95,162.89,497.94,158.86Z"/><path class="cls-4" d="M484,167a1373.73,1373.73,0,0,0,33.18,290.56q-13.17,3-26.32,6A1399.73,1399.73,0,0,1,457,167.46Q470.46,167.19,484,167Z"/><path class="cls-5" d="M497.94,158.86q-7,4-14,8.12-13.5.21-27,.48,7-4.22,14-8.33Q484.43,159,497.94,158.86Z"/><path class="cls-3" d="M451.85,133a647.92,647.92,0,0,0,29,292.2q-5.35,6-10.6,12.13a661.25,661.25,0,0,1-33.33-297.57Q444.37,136.3,451.85,133Z"/><path class="cls-4" d="M436.91,139.78a661.25,661.25,0,0,0,33.33,297.57q-12.69,4.62-25.35,9.37A688.42,688.42,0,0,1,410,137.3Q423.45,138.47,436.91,139.78Z"/><path class="cls-5" d="M451.85,133q-7.49,3.28-14.94,6.76-13.46-1.31-26.93-2.48,7.49-3.7,15-7.21Q438.42,131.49,451.85,133Z"/><path class="cls-6" d="M696.21,448.82c17.76,9.29,21.88,19.7,50.52,62.21,23.95,35.55,33.27,46.37,33.48,67a58.47,58.47,0,0,1-2.86,20.32c-13.79,41.08-71.81,51.82-87.56,54.74-11.28,2.08-15,1.47-16.35,1.21-18.41-3.53-23-22.49-45.86-59.83-23-37.61-32.93-42.24-35.16-64A81.74,81.74,0,0,1,598,492.33c10.76-26.7,38-52.79,69.1-52.1C680.08,440.52,689.59,445.36,696.21,448.82Z"/><path class="cls-6" d="M662.74,473.9c17.47,9.84,21.26,20.37,48.55,63.75,22.83,36.29,31.81,47.4,31.37,68a58.69,58.69,0,0,1-3.49,20.22c-15.07,40.63-73.4,49.55-89.24,52-11.33,1.73-15,1-16.38.7-18.28-4.1-22.29-23.2-44-61.24C567.78,579,558,574,556.45,552.22a81.85,81.85,0,0,1,6.78-37.9c11.59-26.36,39.63-51.59,70.7-49.92C646.88,465.09,656.24,470.23,662.74,473.9Z"/><path class="cls-6" d="M628,499.72c17.18,10.33,20.67,21,46.74,65.1,21.8,36.91,30.47,48.26,29.45,68.81a58.6,58.6,0,0,1-4.06,20.12c-16.2,40.2-74.76,47.47-90.66,49.45-11.37,1.41-15,.58-16.39.24-18.17-4.61-21.64-23.82-42.22-62.45-20.73-38.91-30.37-44.12-31.31-66a81.77,81.77,0,0,1,7.84-37.71c12.33-26,41.06-50.45,72.08-47.91C612.36,490.47,621.57,495.88,628,499.72Z"/><path class="cls-6" d="M592,527.4c16.54,11.33,19.4,22.15,42.81,67.74,19.58,38.14,27.56,50,25.33,70.44a58.63,58.63,0,0,1-5.24,19.84c-18.55,39.17-77.44,43-93.43,44-11.43.74-15-.31-16.38-.73-17.86-5.68-20.19-25.05-38.45-64.83-18.4-40.07-27.7-45.84-27.35-67.69A81.87,81.87,0,0,1,489.3,559c13.85-25.24,44-47.93,74.79-43.56C576.92,517.24,585.8,523.18,592,527.4Z"/><path class="cls-6" d="M548.88,548.91c16.79,11,19.89,21.71,44.32,66.77,20.43,37.68,28.66,49.35,26.9,69.85a59,59,0,0,1-4.8,20c-17.67,39.58-76.46,44.69-92.42,46.08-11.42,1-15.05,0-16.39-.36-18-5.28-20.75-24.6-39.9-64-19.28-39.64-28.72-45.2-28.85-67.06A81.74,81.74,0,0,1,447,582.79c13.28-25.55,42.88-48.91,73.79-45.23C533.62,539.09,542.63,544.83,548.88,548.91Z"/><path class="cls-7" d="M172.83,380.89c-9.85,19.1-6.94,36.93.55,41.28,5.94,3.5,16.12-.26,19-6.85C195.81,407.16,189.14,392.32,172.83,380.89Z"/><path class="cls-8" d="M165.49,400.26c-3.37,19.54-.5,34.11,5.08,35.81,5.78,1.74,17.68-8.71,16.75-20.58C186.52,405.35,176.61,396.73,165.49,400.26Z"/><path class="cls-9" d="M185.73,392.49c13.6,8.95,19,25.77,16,34.34-2.94,8.34-14.8,11-20.2,4.94S175.65,407.78,185.73,392.49Z"/><path class="cls-10" d="M176.61,410c-10.94,22.32-8.85,42.21-1,47.14,6.24,4,17.37-.27,20.87-7.64C200.9,440.09,194.55,422.53,176.61,410Z"/><path class="cls-11" d="M211.94,462.36c7.43-9.61,5.2-30.25-10.67-47.89-1.73,2.61-20.6,43.08-9.63,52.81C196.65,471.76,207.06,468.6,211.94,462.36Z"/><path class="cls-12" d="M179.58,477.85c4.46.83,10.28-1.68,12.16-6.31,5.06-12.49-20.92-38-28.38-46C161.55,455.51,169.5,476,179.58,477.85Z"/><path class="cls-12" d="M300.5,639.71q-7.65,5.53-15.23,11.26c-45.19-64-82.66-138.09-108.88-220.47q7.37-1.59,14.75-3.12C218.06,507,255.67,578.35,300.5,639.71Z"/><path class="cls-7" d="M197.14,377.82C192.67,396,198.83,410,207,412.4c6.48,1.91,15.79-3.23,17.18-9.69C225.93,394.73,215.89,383,197.14,377.82Z"/><path class="cls-8" d="M194.76,395.59c1.11,16.84,6.14,28.57,12,29.19,6,.66,16-10.57,12.62-20.89C216.44,395.09,204.74,390.13,194.76,395.59Z"/><path class="cls-9" d="M212.55,384.33c15.45,4.23,24.5,18.41,23.15,26.83-1.31,8.2-12.59,12.5-18.94,8.07S206.65,399.81,212.55,384.33Z"/><path class="cls-10" d="M207.73,401.36c-5.91,21.18-1.38,37.46,7,40.94,6.68,2.73,17.25-2.36,19.62-9.64C237.45,423.42,228,408.2,207.73,401.36Z"/><path class="cls-11" d="M251.46,442.51c6.25-10,.68-30-18.71-42.44-.58,3.09-12.25,42.05-.87,49.4C237.35,453,247.4,449.07,251.46,442.51Z"/><path class="cls-12" d="M221,460.17c4.51.36,10.1-2.41,11.49-6.83C236.33,441,206.68,422,197.8,417.08,201.37,442.39,210.66,459.31,221,460.17Z"/><path class="cls-12" d="M327.91,633.05q-8.9,4-17.82,7.77A984.54,984.54,0,0,0,211.5,419q7-2.67,13.93-5.39A997.57,997.57,0,0,1,327.91,633.05Z"/><path class="cls-7" d="M241.19,396.33c-1.46,19,6.2,32.16,14.65,33.84,6.66,1.26,15.34-5,15.86-11.95C272.38,409.69,260.58,398.63,241.19,396.33Z"/><path class="cls-8" d="M241.51,414.6c3.42,16.79,9.51,28.13,15.38,28.24,6,.16,14.9-12.46,10.14-22.82C263,411.19,250.62,407.73,241.51,414.6Z"/><path class="cls-9" d="M257.48,400.7c16,2.11,27.09,16.05,26.73,25.1-.3,8.83-11.12,14.33-17.91,10.37C259.35,432.06,254.08,417.42,257.48,400.7Z"/><path class="cls-10" d="M255.16,418.8c-3.06,22.31,2.64,38.27,11.33,41.32,6.87,2.35,17.05-3.65,18.74-11.54C287.47,438.59,276.2,423.26,255.16,418.8Z"/><path class="cls-11" d="M303.11,457.79c5.52-11.08-2.21-32.53-23.27-43.34.18,3.52-7.26,45.1,4.26,52C289.8,469.81,299.59,465.11,303.11,457.79Z"/><path class="cls-12" d="M273.86,478.2c4.53.16,10-3,11.06-7.74,3.14-13.49-28.31-30.82-37.71-34.54C253.52,461,263.49,477.75,273.86,478.2Z"/><path class="cls-12" d="M369.73,672.39q-9.6,3.43-19.22,6.51c-8.47-95-42.09-178.19-89.47-242.43q6.65-3.44,13.25-7C323.18,493.71,358.7,576.9,369.73,672.39Z"/><path class="cls-7" d="M198,416.57c17.58,6.31,25.7,20.16,23.1,28.86-2.07,6.88-11.41,12.33-17.4,10C196.25,452.57,192.08,436.83,198,416.57Z"/><path class="cls-8" d="M214,424.63c13.36,10.84,20.11,22.25,17.32,27.73s-17.55,8.17-24.07-.69C201.71,444.1,204,430.51,214,424.63Z"/><path class="cls-9" d="M195,434.46c-4.85,16.65,1.75,32.74,9.23,36.14,7.3,3.33,17-4.34,17-12.53C221.14,449.7,210.94,437.72,195,434.46Z"/><path class="cls-10" d="M211.6,439.7c20.7,6.86,31.41,20.65,29.38,30-1.63,7.41-11.68,13.74-18.81,11.78C213.11,479,206.09,462,211.6,439.7Z"/><path class="cls-11" d="M220.49,502.18c-11.32.05-24-15.7-23.64-40.39,2.79.92,40.78,12.64,40.15,27C236.69,495.59,227.9,502.17,220.49,502.18Z"/><path class="cls-12" d="M251.77,485.48c-2.32,4.1-7.72,7.33-12,6-12-3.59-10.61-40.72-9.69-51.55C248.88,458.08,257,476.17,251.77,485.48Z"/><path class="cls-12" d="M317.24,672.6q8-5.05,16-10A1497.1,1497.1,0,0,1,224,453.25q-6.08,4.68-12.12,9.43A1517.06,1517.06,0,0,0,317.24,672.6Z"/><path class="cls-7" d="M174.75,432.46c-12,22-9.24,43-.86,48.22,6.64,4.2,18.29,0,21.72-7.55C199.81,463.72,192.78,446.31,174.75,432.46Z"/><path class="cls-8" d="M165.66,454.89c-4.54,22.77-1.63,39.86,4.66,41.95,6.51,2.12,20.28-9.81,19.6-23.64C189.34,461.39,178.42,451.06,165.66,454.89Z"/><path class="cls-9" d="M188.93,446.37c15.08,10.84,20.6,30.47,17,40.35-3.57,9.61-17.1,12.53-23.07,5.32S176.88,463.91,188.93,446.37Z"/><path class="cls-10" d="M178,466.53c-13.18,25.79-11.2,49.11-2.39,55,7,4.72,19.72-.06,23.85-8.55C204.61,502.09,197.87,481.61,178,466.53Z"/><path class="cls-11" d="M216.69,528.09c8.58-11,6.52-34.85-10.9-55.73-2.13,2.93-24.6,49.67-12.23,61.16C199.18,538.79,211,535.24,216.69,528.09Z"/><path class="cls-12" d="M179.71,545.68c5.06,1,11.69-1.85,13.9-7.2,5.9-14.41-23-44.56-31.19-54.08C159.5,519.41,168.32,543.48,179.71,545.68Z"/><path class="cls-12" d="M318.53,730.77q-8.5,6.56-16.88,13.35c-53.64-71.49-97.08-157-124.58-253.66q8.4-1.72,16.83-3.33C222.19,580.33,265.61,662.48,318.53,730.77Z"/><path class="cls-13" d="M459,630c44.45-18.4,61.15-12.43,79-32,15.77-17.29,6.44-26,24-48s29.13-16.27,61-43c27.64-23.19,24.49-32.14,42-38,23.16-7.75,33.59,6.29,59-3,20.55-7.51,25.2-20.88,36-18,10.19,2.71,14.53,16.87,21,38,6.88,22.45,10.31,33.67,7,47-4.94,19.87-21.86,38.88-42,43s-27.36-9.75-41-4c-18.74,7.89-11.63,36.86-33,63-6.72,8.21-12.51,11.58-46,28-57.62,28.25-86.89,42.51-109,49-34.65,10.17-53.82,15.51-77,8-20.65-6.69-47-24.38-46-43C395.11,656.45,429.15,642.35,459,630Z"/><path class="cls-14" d="M749.54,520.27c-5.58-3.91-8.56-12-6.19-14.93,1.46-1.77,3.93-.38,13.7.21,11.22.68,13.54-.83,16.43,1.7.6.51,2.19,3.88,5.37,10.58,1.85,3.91,2.15,4.65,1.76,5.39-.81,1.6-3.82,1.51-16.56,0C752.69,521.88,751.3,521.51,749.54,520.27Z"/><path class="cls-14" d="M660.72,488.5a20.87,20.87,0,0,1,11.76,1.75c2.32,1.1,6,2.83,7.69,6.68s.5,7.84-.57,11.14a31.85,31.85,0,0,1-10.18,14.51,23.32,23.32,0,0,0-11.16-13.18,23.66,23.66,0,0,0-19-.91,33.14,33.14,0,0,1,9-13.3C650.8,492.83,654.64,489.4,660.72,488.5Z"/><path class="cls-14" d="M683.36,602.05c-1.15,1.81-8.64-4-14.36-1.22-7,3.42-6,17.23-8.08,17.2-1.59,0-1.19-7.74-5.5-17.83-3.3-7.78-5.9-8.75-5.45-12.44.93-7.88,14.11-15,19.7-11.72,3.45,2,1.32,6.43,5.9,14.71C679.42,597.64,684.24,600.63,683.36,602.05Z"/><path class="cls-14" d="M532.62,635.41c11.25-6.61,12.84-14.84,18.19-14,4.15.66,7.71,6.41,7.46,11.18-.29,5.32-5.15,5.79-8.87,13.42-4.08,8.36-1.08,13.62-4.74,15.74-4.06,2.37-10.88-2.33-15.58-5.57C525,653.36,516.83,647.73,518,643,518.82,639.42,524.22,640.35,532.62,635.41Z"/><path class="cls-14" d="M427.11,656.1c8-3.35,17.4-1.8,17.92.7.46,2.18-6.39,3.07-8.49,9.11-1.52,4.39,1.23,6.39.19,11.3-1.54,7.27-9.68,12.67-12,11.28-2.47-1.49,3.18-10.08-1.18-16.07-2.55-3.5-6.2-2.94-6.79-5.63C416,663.13,421.93,658.28,427.11,656.1Z"/><path class="cls-14" d="M568.74,577.83c-5.58-3.92-8.57-12-6.19-14.93,1.46-1.77,3.92-.38,13.69.21,11.22.67,13.55-.83,16.43,1.7.6.51,2.19,3.87,5.38,10.58,1.84,3.9,2.14,4.64,1.75,5.39-.81,1.6-3.81,1.51-16.55,0C571.89,579.44,570.49,579.07,568.74,577.83Z"/></g></g></svg>