<svg xmlns="http://www.w3.org/2000/svg" viewBox="0 0 914 914"><defs><style>.cls-1{fill:#5a8a96;}.cls-2{fill:#50727d;}.cls-3{fill:#e8602e;}.cls-4{fill:#fff;}.cls-5{fill:#666;}.cls-6{fill:gray;}.cls-7{fill:#006837;}.cls-8{fill:none;}</style></defs><g id="Layer_2" data-name="Layer 2"><g id="Layer_1-2" data-name="Layer 1"><circle class="cls-1" cx="457" cy="457" r="457"/><circle class="cls-2" cx="457" cy="457" r="353"/><circle class="cls-3" cx="457" cy="457" r="335.13"/><path class="cls-4" d="M459.22,153.75c12.21,8.14,16,13.53,12.62,15.44-5.54,3.46-29-3-71.69-8.21,37.36-21.09,66.86-25.29,72.05-22.48C475.83,140.43,470.82,145.26,459.22,153.75Z"/><path class="cls-4" d="M412.8,158.46c12.52,6.62,16.86,11.52,14,13.81-4.58,4.08-27,.46-67.83.34,31.77-25.32,58.11-33,63.33-30.77C426,143.31,422.16,148.69,412.8,158.46Z"/><path class="cls-4" d="M372.16,168c12.72,5.13,17.49,9.49,15.2,12.09-3.7,4.56-25.1,3.52-64,8.07,26.6-28.74,50-39.29,55.22-37.73C382.23,151.44,379.48,157.2,372.16,168Z"/><path class="cls-4" d="M333.72,182.84c12.8,3.57,17.95,7.32,16.19,10.17-2.81,5-23,6.47-59.68,15.65,21.35-31.68,41.73-44.91,46.9-44C340.69,165.29,339,171.32,333.72,182.84Z"/><path class="cls-4" d="M296.24,204c12.78,1.85,18.27,4.89,17.06,7.93-1.91,5.28-20.79,9.41-54.82,23.34,15.84-34.18,33-49.92,38.09-49.69C300.05,185.75,299.43,191.94,296.24,204Z"/><path class="cls-4" d="M266.3,227.7c12.64.3,18.36,2.64,17.62,5.8-1.1,5.47-18.67,11.84-50.12,29.77,11-35.81,25.26-53.48,30.22-53.86C267.4,209.13,267.69,215.34,266.3,227.7Z"/><path class="cls-4" d="M241.37,253.47c12.39-1.17,18.27.49,18,3.71-.39,5.55-16.64,13.91-45.45,35.39,6.49-36.84,18.08-56,22.88-57C240,234.91,241.13,241,241.37,253.47Z"/><path class="cls-4" d="M219.39,283.37c12-2.67,18-1.73,18.12,1.5.33,5.55-14.47,15.81-40.35,40.64,2-37.35,10.82-57.79,15.41-59.32C215.68,265.13,217.57,271.07,219.39,283.37Z"/><path class="cls-4" d="M203.18,312c11.61-4,17.61-3.67,18.09-.47.92,5.48-12.54,17.28-35.66,44.78-1.9-37.35,4.57-58.63,8.95-60.64C197.51,294.22,200,299.92,203.18,312Z"/><path class="cls-4" d="M188.88,346.05c11-5.35,17-5.8,17.85-2.68,1.55,5.33-10.33,18.68-30.18,48.81-6.09-36.85-2.23-58.76,1.86-61.29C181.17,329.14,184.35,334.49,188.88,346.05Z"/><path class="cls-4" d="M178.88,380.05c10.35-6.6,16.22-7.75,17.41-4.75,2.13,5.11-8.19,19.77-24.74,52-9.93-35.92-8.5-58.13-4.72-61.13C169.37,364.15,173.12,369.1,178.88,380.05Z"/><path class="cls-4" d="M172.52,416.62c9.55-7.82,15.25-9.68,16.77-6.85,2.68,4.82-5.93,20.63-18.86,54.7C156.66,430,155.61,407.79,159,404.35,161.32,402,165.59,406.45,172.52,416.62Z"/><path class="cls-4" d="M170,457.16c8.54-9,14-11.64,15.81-9,3.24,4.42-3.43,21.27-12.19,56.8-17.77-32.34-21.45-54.26-18.48-58.13C157.15,444.15,161.92,448,170,457.16Z"/><path class="cls-4" d="M172.14,494.27c7.5-10,12.61-13.27,14.72-10.91,3.71,4-1.1,21.54-5.87,57.9-21.23-29.94-27.26-51.26-24.73-55.47C158,482.93,163.11,486.16,172.14,494.27Z"/><path class="cls-4" d="M177.85,529.34c6.4-10.84,11.14-14.67,13.49-12.57,4.11,3.53,1.13,21.54.36,58.23-24.39-27.27-32.59-47.75-30.53-52.23C162.55,519.72,168,522.33,177.85,529.34Z"/><path class="cls-4" d="M187.92,565c5.13-11.55,9.41-15.93,12-14.13,4.5,3,3.51,21.25,7.08,57.76-27.51-24.07-37.91-43.41-36.38-48.11C171.64,557.31,177.36,559.23,187.92,565Z"/><path class="cls-4" d="M201.26,598.34c3.79-12.08,7.56-17,10.32-15.47,4.84,2.46,5.85,20.72,13.83,56.57C195,618.79,182.53,600.8,183.51,596,184.18,592.65,190.09,593.88,201.26,598.34Z"/><path class="cls-4" d="M219.33,630.6c2.3-12.45,5.48-17.74,8.41-16.61,5.14,1.84,8.27,19.84,20.94,54.41-33.17-16.73-47.71-33.06-47.34-38C201.61,627.05,207.63,627.55,219.33,630.6Z"/><path class="cls-4" d="M240.3,659.25c.77-12.64,3.31-18.26,6.38-17.48,5.39,1.22,10.62,18.73,28,51.55-35.67-12.7-52.14-27.21-52.38-32.15C222.13,657.81,228.21,657.59,240.3,659.25Z"/><path class="cls-4" d="M266.29,686.22c-.94-12.63.87-18.52,4.06-18.12,5.61.54,13.1,17.27,35.49,47.65-38.09-8.17-56.5-20.54-57.43-25.4C247.82,687,253.9,686.07,266.29,686.22Z"/><path class="cls-4" d="M299.2,711.92c-2.95-12.38-2-18.45,1.26-18.49,5.82-.22,15.86,15.34,44,42.34-40.56-2.9-61-12.67-62.74-17.36C280.6,715.21,286.59,713.44,299.2,711.92Z"/><path class="cls-4" d="M333.66,731.13c-4.89-11.89-4.84-18-1.49-18.48,5.95-.94,18.39,13.24,51.93,36.46-42.61,2.2-64.85-4.94-67.36-9.37C315.13,736.7,321,734.2,333.66,731.13Z"/><path class="cls-4" d="M370.38,745.45c-6.87-11.2-7.72-17.3-4.34-18.14,6-1.65,20.85,10.94,59.75,29.91-44.42,7.31-68.32,2.87-71.6-1.22C352.07,753.18,357.71,750,370.38,745.45Z"/><path class="cls-4" d="M412.75,755.43c-9-10.22-10.9-16.15-7.51-17.41,6.1-2.39,23.44,8.22,68.11,22.06-46.13,12.87-71.69,11.47-75.82,7.84C394.87,765.39,400.23,761.54,412.75,755.43Z"/><path class="cls-5" d="M885.89,424a29.2,29.2,0,0,1-4,9.8l-31.66,12.53L510.63,580.88c-.78-1.12-1.54-2.25-2.28-3.41A98.92,98.92,0,0,1,496,549.07L835.27,399l22.82-10.1h0A29.2,29.2,0,0,1,885.89,424Z"/><path class="cls-6" d="M884.32,420.27a29.15,29.15,0,0,1-4,9.8l-31.65,12.54L508.35,577.47A98.92,98.92,0,0,1,496,549.07c-.35-1.32-.67-2.65-.95-4L833.71,395.26l22.81-10.1a29.22,29.22,0,0,1,27.8,35.11Z"/><path class="cls-7" d="M433.45,417.86a30.36,30.36,0,0,1,17.29,1.23c3.5,1.34,9,3.44,11.93,8.85s1.61,11.34.42,16.25a46.37,46.37,0,0,1-13.17,22.23,34,34,0,0,0-17.7-17.9c-13.67-5.82-26-.07-27.78.82A48.37,48.37,0,0,1,416,429C419.51,425.27,424.71,419.85,433.45,417.86Z"/><path class="cls-7" d="M454.47,488.69c-1.47,2.76-13-4.82-21-.15-9.81,5.76-6.72,25.71-9.82,25.91-2.31.15-2.6-11.13-10-25.31-5.67-10.93-9.55-12.05-9.32-17.47.47-11.55,18.83-23.37,27.32-19.24,5.25,2.55,2.65,9.2,10.23,20.71C448.25,482.73,455.6,486.54,454.47,488.69Z"/><path class="cls-7" d="M472.66,454.18c15.62-10.86,17-23,24.87-22.38,6.11.49,11.93,8.45,12.1,15.41.18,7.77-6.83,9-11.38,20.5-5,12.61-.05,19.92-5.13,23.42-5.64,3.9-16.07-2.17-23.28-6.36-6.25-3.64-18.74-10.9-17.64-17.86C453.05,461.56,461,462.31,472.66,454.18Z"/><path class="cls-7" d="M468.85,399.54c11.21-5.76,25.09-4.57,26.13-1,.91,3.12-8.94,5.18-11.32,14.2-1.72,6.55,2.51,9.15,1.55,16.4-1.43,10.75-12.65,19.5-16.13,17.74-3.75-1.89,3.49-15-3.52-23.23-4.09-4.79-9.33-3.57-10.5-7.41C453.46,411,461.56,403.29,468.85,399.54Z"/><path class="cls-7" d="M445.39,515.39c-8.55-5.06-13.8-16.52-10.67-21,1.92-2.74,5.66-1,19.93-1.23,16.38-.28,19.59-2.73,24.07.62.93.68,3.62,5.39,9,14.78,3.12,5.47,3.64,6.51,3.16,7.64-1,2.41-5.38,2.62-24.07,1.86C450.15,517.38,448.08,517,445.39,515.39Z"/><path class="cls-8" d="M510.63,580.88c-.78-1.12-1.54-2.25-2.28-3.41A98.92,98.92,0,0,1,496,549.07c-.35-1.32-.67-2.65-.95-4"/></g></g></svg>